<svg width="74" height="69" viewBox="0 0 74 69" fill="none" xmlns="http://www.w3.org/2000/svg">
<g clip-path="url(#clip0)">
<path d="M21.116 68.7613H16.3321C14.641 68.7613 13.2535 67.3689 13.2535 65.672V62.1187H24.1946V65.672C24.209 67.3689 22.8215 68.7613 21.116 68.7613Z" fill="#40596B"/>
<path d="M57.6535 68.7613H52.8695C51.1785 68.7613 49.791 67.3689 49.791 65.672V62.1187H60.732V65.672C60.7465 67.3689 59.359 68.7613 57.6535 68.7613Z" fill="#40596B"/>
<path d="M65.3715 62.1185C46.409 62.1185 27.4465 62.1185 8.48401 62.1185C8.48401 46.0341 8.48401 29.9352 8.48401 13.8508C8.48401 8.74561 12.4875 3.17627 17.575 2.0885C30.2215 -0.696168 43.475 -0.696168 56.1215 2.0885C61.209 3.17627 65.2125 8.74561 65.2125 13.8508C65.3715 29.9352 65.3715 46.0196 65.3715 62.1185Z" fill="#E56353"/>
<path d="M59.2 31.9513V13.851C59.2 11.5304 57.0465 8.58618 54.8785 8.12207C49.025 6.88928 43.0125 6.26562 37 6.26562C30.9875 6.26562 24.975 6.88928 19.1215 8.12207C16.968 8.58618 14.8 11.5304 14.8 13.851V31.9513H59.2Z" fill="#54C0EB"/>
<path d="M65.0535 62.1184H8.94646C7.55896 62.1184 6.47498 61.0306 6.47498 59.6383C6.47498 58.246 7.55896 57.1582 8.94646 57.1582H65.2125C66.6 57.1582 67.684 58.246 67.684 59.6383C67.525 61.0306 66.441 62.1184 65.0535 62.1184Z" fill="#ACB3BA"/>
<path d="M21.116 68.7613H16.3321C14.641 68.7613 13.2535 67.3689 13.2535 65.672V62.1187H24.1946V65.672C24.209 67.3689 22.8215 68.7613 21.116 68.7613Z" fill="#40596B"/>
<path d="M57.6535 68.7613H52.8695C51.1785 68.7613 49.791 67.3689 49.791 65.672V62.1187H60.732V65.672C60.7465 67.3689 59.359 68.7613 57.6535 68.7613Z" fill="#40596B"/>
<path d="M6.0125 34.881H1.54648C0.621484 34.881 0 34.2573 0 33.3291V24.8155C0 23.8873 0.621484 23.2637 1.54648 23.2637H6.0125C6.9375 23.2637 7.55898 23.8873 7.55898 24.8155V33.3291C7.55898 34.1123 6.77852 34.881 6.0125 34.881Z" fill="#40596B"/>
<path d="M4.92853 23.2781H2.61603V21.7262C2.61603 19.8697 4.16251 18.3179 6.01251 18.3179H8.62853V20.6384H6.01251C5.39103 20.6384 4.92853 21.1025 4.92853 21.7262V23.2781Z" fill="#ACB3BA"/>
<path d="M67.9875 34.881H72.4535C73.3785 34.881 74 34.2573 74 33.3291V24.8155C74 23.8873 73.3785 23.2637 72.4535 23.2637H67.9875C67.0625 23.2637 66.441 23.8873 66.441 24.8155V33.3291C66.441 34.1123 67.2215 34.881 67.9875 34.881Z" fill="#40596B"/>
<path d="M69.0715 23.2781H71.384V21.7262C71.384 19.8697 69.8375 18.3179 67.9875 18.3179H65.3715V20.6384H67.9875C68.609 20.6384 69.0715 21.1025 69.0715 21.7262V23.2781Z" fill="#ACB3BA"/>
<path d="M37.766 6.26562L16.1875 31.9513H14.641V30.2544L34.8465 6.26562C35.6125 6.26562 36.234 6.26562 37 6.26562C37.3035 6.26562 37.4625 6.26562 37.766 6.26562Z" fill="#84DBFF"/>
<path d="M44.0965 6.5702L22.966 31.9513H18.182L39.775 6.26562C41.1625 6.26562 42.709 6.42516 44.0965 6.5702Z" fill="#84DBFF"/>
<path d="M20.509 50.3557C23.662 50.3557 26.218 47.7908 26.218 44.6268C26.218 41.4629 23.662 38.8979 20.509 38.8979C17.356 38.8979 14.8 41.4629 14.8 44.6268C14.8 47.7908 17.356 50.3557 20.509 50.3557Z" fill="white"/>
<path d="M53.491 50.3557C56.644 50.3557 59.2 47.7908 59.2 44.6268C59.2 41.4629 56.644 38.8979 53.491 38.8979C50.338 38.8979 47.782 41.4629 47.782 44.6268C47.782 47.7908 50.338 50.3557 53.491 50.3557Z" fill="white"/>
<path d="M24.1946 62.1187H13.2535V64.4392H24.1946V62.1187Z" fill="#334A5E"/>
<path d="M60.732 62.1187H49.791V64.4392H60.732V62.1187Z" fill="#334A5E"/>
<path d="M30.525 43.3945H43.475C44.559 43.3945 45.325 42.4663 45.325 41.5381C45.325 40.4503 44.4 39.6816 43.475 39.6816H30.525C29.441 39.6816 28.675 40.6099 28.675 41.5381C28.516 42.4663 29.441 43.3945 30.525 43.3945Z" fill="#ACB3BA"/>
<path d="M30.525 49.5874H43.475C44.559 49.5874 45.325 48.6592 45.325 47.731C45.325 46.6432 44.4 45.8745 43.475 45.8745H30.525C29.441 45.8745 28.675 46.8027 28.675 47.731C28.516 48.8042 29.441 49.5874 30.525 49.5874Z" fill="#ACB3BA"/>
<path d="M66.4554 32.1108H71.3839C72.2945 32.1108 73.0316 32.72 73.0316 33.4887C73.0316 34.2429 72.2945 34.8665 71.3839 34.8665H68.1465C67.2215 34.8665 66.4554 34.1123 66.4554 33.1696V32.1108Z" fill="#334A5E"/>
<path d="M7.53009 33.1838C7.53009 34.112 6.77853 34.8807 5.83907 34.8807H2.60157C1.69103 34.8807 0.953918 34.2715 0.953918 33.5028C0.953918 32.7487 1.69103 32.125 2.60157 32.125H7.53009V33.1838Z" fill="#334A5E"/>
<path d="M20.509 40.3053C23.443 40.3053 25.7555 42.4663 26.218 45.251C26.218 44.9464 26.218 44.7869 26.218 44.4823C26.218 41.3931 23.6019 38.7534 20.509 38.7534C17.416 38.7534 14.8 41.3785 14.8 44.4823C14.8 44.7869 14.8 44.9464 14.8 45.251C15.2625 42.4663 17.575 40.3053 20.509 40.3053Z" fill="#F2F2F2"/>
<path d="M53.491 40.3053C56.425 40.3053 58.7375 42.4663 59.2 45.251C59.2 44.9464 59.2 44.7869 59.2 44.4823C59.2 41.3931 56.584 38.7534 53.491 38.7534C50.4125 38.7534 47.782 41.3785 47.782 44.4823C47.782 44.7869 47.782 44.9464 47.782 45.251C48.259 42.4663 50.5715 40.3053 53.491 40.3053Z" fill="#F2F2F2"/>
</g>
<defs>
<clipPath id="clip0">
<rect width="74" height="68.7611" fill="white"/>
</clipPath>
</defs>
</svg>
