<svg width="242" height="88" viewBox="0 0 242 88" fill="none" xmlns="http://www.w3.org/2000/svg">
<path d="M221.51 59.9277H226.809C227.78 59.9277 228.575 59.1357 228.575 58.1677C228.575 57.1997 227.78 56.4077 226.809 56.4077H221.51C220.538 56.4077 219.743 57.1997 219.743 58.1677C219.743 59.1357 220.538 59.9277 221.51 59.9277Z" fill="#D0D5D8"/>
<path d="M221.51 67.4956H226.809C227.78 67.4956 228.575 66.7036 228.575 65.7356C228.575 64.7676 227.78 63.9756 226.809 63.9756H221.51C220.538 63.9756 219.743 64.7676 219.743 65.7356C219.743 66.7036 220.538 67.4956 221.51 67.4956Z" fill="#D0D5D8"/>
<path d="M221.51 76.1196H226.809C227.78 76.1196 228.575 75.3276 228.575 74.3596C228.575 73.3916 227.78 72.5996 226.809 72.5996H221.51C220.538 72.5996 219.743 73.3916 219.743 74.3596C219.743 75.3276 220.538 76.1196 221.51 76.1196Z" fill="#D0D5D8"/>
<path d="M17.1343 61.248H100.951V75.768H17.1343V61.248Z" fill="#4D5261"/>
<path d="M165.514 61.248H215.68V75.768H165.514V61.248V61.248Z" fill="#4D5261"/>
<path d="M235.817 65.2076V55.7036C235.817 55.7036 241.117 57.5516 241.117 60.7196C241.117 62.8316 241.117 66.3516 241.117 66.3516L239.35 68.1996C239.35 70.6636 239.35 70.6636 239.35 72.6876C239.35 75.8556 234.051 75.8556 234.051 75.8556V65.2076H235.817Z" fill="#D4DDF2"/>
<path d="M234.051 76.6478C236.348 76.6478 240.234 75.7678 240.234 72.5998V68.4638L241.735 66.8798C241.912 66.7038 242 66.5278 242 66.2638V60.7198C242 56.9358 236.348 54.9998 236.171 54.9118C235.906 54.8238 235.641 54.8238 235.376 54.9998C235.023 55.1758 234.934 55.4398 234.934 55.7038V64.3278H234.051C233.521 64.3278 233.168 64.6798 233.168 65.2078V75.8558C233.168 76.2958 233.521 76.6478 234.051 76.6478ZM240.145 65.9998L238.644 67.5838C238.467 67.7598 238.379 67.9358 238.379 68.1998V72.6878C238.379 74.2718 236.171 74.7998 234.846 74.8878V66.0878H235.818C236.348 66.0878 236.701 65.7358 236.701 65.2078V57.0238C238.202 57.7278 240.234 59.0478 240.234 60.7198V65.9998H240.145Z" fill="#4D5261"/>
<path opacity="0.2" fill-rule="evenodd" clip-rule="evenodd" d="M99.8028 62.2157C101.658 65.3837 100.598 69.4317 97.5064 71.2797C94.3269 73.1277 90.2641 72.0717 88.4094 68.9917C86.5546 65.8237 87.6145 61.7757 90.7057 59.9277C93.7969 57.9917 97.948 59.0477 99.8028 62.2157Z" fill="#E71F52"/>
<path opacity="0.2" fill-rule="evenodd" clip-rule="evenodd" d="M161.363 63.1837C162.599 60.8077 165.514 60.0157 167.987 61.5117C170.371 63.0077 171.343 66.1757 170.107 68.5517C168.87 70.9277 165.955 71.7197 163.482 70.2237C161.098 68.7277 160.126 65.5597 161.363 63.1837Z" fill="#E71F52"/>
<path opacity="0.2" fill-rule="evenodd" clip-rule="evenodd" d="M217.8 66.6159C219.125 64.4159 222.039 63.5359 224.159 64.6799C226.367 65.7359 226.985 68.4639 225.66 70.5759C224.336 72.7759 221.421 73.6559 219.301 72.5119C217.182 71.3679 216.475 68.7279 217.8 66.6159Z" fill="#A15641"/>
<path d="M221.51 34.0561H226.809C227.78 34.0561 228.575 33.2641 228.575 32.2961C228.575 31.3281 227.78 30.5361 226.809 30.5361H221.51C220.538 30.5361 219.743 31.3281 219.743 32.2961C219.743 33.2641 220.538 34.0561 221.51 34.0561Z" fill="#D0D5D8"/>
<path d="M209.498 34.0561H214.797C215.769 34.0561 216.564 33.2641 216.564 32.2961C216.564 31.3281 215.769 30.5361 214.797 30.5361H209.498C208.526 30.5361 207.731 31.3281 207.731 32.2961C207.731 33.2641 208.438 34.0561 209.498 34.0561Z" fill="#D0D5D8"/>
<path d="M221.51 42.6802H226.809C227.78 42.6802 228.575 41.8882 228.575 40.9202C228.575 39.9522 227.78 39.1602 226.809 39.1602H221.51C220.538 39.1602 219.743 39.9522 219.743 40.9202C219.743 41.8882 220.538 42.6802 221.51 42.6802Z" fill="#D0D5D8"/>
<path d="M221.51 51.3042H226.809C227.78 51.3042 228.575 50.5122 228.575 49.5442C228.575 48.5762 227.78 47.7842 226.809 47.7842H221.51C220.538 47.7842 219.743 48.5762 219.743 49.5442C219.743 50.5122 220.538 51.3042 221.51 51.3042Z" fill="#D0D5D8"/>
<path d="M199.341 24.4639H231.49C231.931 24.4639 232.285 24.1119 232.285 23.6719C232.285 23.2319 231.931 22.8799 231.49 22.8799H199.341C198.899 22.8799 198.546 23.2319 198.546 23.6719C198.546 24.1119 198.899 24.4639 199.341 24.4639Z" fill="#D0D5D8"/>
<path d="M224.248 8.44824H237.407V22.6162L236.701 11.0882H226.632L224.248 8.44824Z" fill="#4D5261"/>
<path d="M237.407 23.4959C237.937 23.4959 238.291 23.0559 238.291 22.6159V8.44787C238.291 7.91987 237.937 7.56787 237.407 7.56787H224.247C223.718 7.56787 223.364 7.91987 223.364 8.44787C223.364 8.97587 223.718 9.32787 224.247 9.32787H236.524V10.2079H226.544C226.014 10.2079 225.661 10.5599 225.661 11.0879C225.661 11.6159 226.014 11.9679 226.544 11.9679H235.818L236.524 22.6159C236.612 23.1439 236.966 23.4959 237.407 23.4959Z" fill="#4D5261"/>
<path d="M2.38476 69.52C1.50155 69.52 0.883301 68.816 0.883301 68.024V12.1439C0.883301 11.3519 1.58987 10.6479 2.38476 10.6479H31.2658V69.52H2.38476Z" fill="#BDC7DE"/>
<path d="M31.2658 35.9922V69.5202H2.38476C1.50155 69.5202 0.883301 68.8162 0.883301 68.0242V35.9922H31.2658Z" fill="#ACB9D6"/>
<path d="M2.38467 70.4001H31.2657C31.7956 70.4001 32.1489 70.0481 32.1489 69.5201V10.6481C32.1489 10.1201 31.7956 9.76807 31.2657 9.76807H2.38467C1.05985 9.76807 0 10.8241 0 12.1441V67.9361C0 69.3441 1.05985 70.4001 2.38467 70.4001ZM30.3825 68.6401H2.38467C2.03139 68.6401 1.76642 68.3761 1.76642 68.0241V12.1441C1.76642 11.7921 2.03139 11.5281 2.38467 11.5281H30.3825V68.6401Z" fill="#4D5261"/>
<path d="M13.3365 0.879883H86.2015C93.0022 0.879883 99.9796 0.879883 106.869 0.879883C152.266 0.879883 209.321 0.879883 214.355 0.879883C231.666 0.879883 236.436 49.7199 236.436 49.7199L236.082 75.7679H9.36206V52.8879V4.75188C9.45038 2.63988 11.1285 0.879883 13.3365 0.879883Z" fill="#BDC7DE"/>
<path opacity="0.73" d="M126.653 0.0878906H50.1665L116.142 65.8239C126.653 76.2959 143.787 76.2959 154.385 65.8239C164.896 55.3519 164.896 38.2799 154.385 27.7199L126.653 0.0878906Z" fill="white"/>
<path opacity="0.3" d="M170.195 41.9761C191.834 41.9761 227.339 55.9681 227.692 56.0561L235.641 59.1361L235.376 75.7681H171.608H9.45044V52.8881V41.9761H170.195Z" fill="#8698C2"/>
<path d="M205.17 4.75195V40.392C193.777 37.136 180.617 34.232 170.195 34.232C146.701 34.232 13.3364 34.232 13.3364 34.232V4.75195H205.17Z" fill="#64788F"/>
<path opacity="0.97" d="M135.131 73.0402C149.765 73.0402 161.628 61.2206 161.628 46.6402C161.628 32.0599 149.765 20.2402 135.131 20.2402C120.498 20.2402 108.635 32.0599 108.635 46.6402C108.635 61.2206 120.498 73.0402 135.131 73.0402Z" fill="white"/>
<path opacity="0.2" fill-rule="evenodd" clip-rule="evenodd" d="M42.306 23.5838C40.7162 20.8558 41.5994 17.3358 44.3373 15.7518C47.0753 14.1678 50.6081 15.0478 52.1979 17.7758C53.7877 20.5038 52.9045 24.0238 50.1665 25.6078C47.4286 27.1918 43.8957 26.3118 42.306 23.5838Z" fill="#A44585"/>
<path opacity="0.2" fill-rule="evenodd" clip-rule="evenodd" d="M59.7935 14.5199C58.557 12.4079 59.2636 9.76791 61.3833 8.53591C63.503 7.30391 66.1526 8.00791 67.3891 10.1199C68.6256 12.2319 67.919 14.8719 65.7993 16.1039C63.7679 17.3359 61.03 16.6319 59.7935 14.5199Z" fill="#F5AAAC"/>
<path opacity="0.2" fill-rule="evenodd" clip-rule="evenodd" d="M13.6016 56.6718C9.27382 49.3678 11.7468 39.8638 19.0775 35.5518C26.4081 31.2398 35.9468 33.7038 40.2745 41.0078C44.6023 48.3118 42.1293 57.8158 34.7986 62.1278C27.468 66.4398 17.9293 63.9758 13.6016 56.6718Z" fill="#6C8BC4"/>
<path opacity="0.2" fill-rule="evenodd" clip-rule="evenodd" d="M54.9358 49.3678C50.9613 42.6798 53.1693 34.0558 59.9701 30.0958C66.6825 26.1358 75.3379 28.3358 79.3124 35.1118C83.2869 41.7998 81.0788 50.4238 74.2781 54.3838C67.5657 58.3438 58.9102 56.0558 54.9358 49.3678Z" fill="#E62327"/>
<path opacity="0.2" fill-rule="evenodd" clip-rule="evenodd" d="M95.8285 21.296C98.4781 25.696 96.9766 31.3279 92.5606 33.9679C88.1445 36.5199 82.4036 35.112 79.8423 30.712C77.1927 26.312 78.6942 20.6799 83.1102 18.0399C87.6146 15.3999 93.2671 16.896 95.8285 21.296Z" fill="#F9E925"/>
<path opacity="0.2" fill-rule="evenodd" clip-rule="evenodd" d="M90.3525 45.3201C91.589 47.4321 90.8824 50.0721 88.7627 51.3041C86.643 52.5361 83.905 51.8321 82.7569 49.7201C81.5204 47.6081 82.2269 44.9681 84.3467 43.7361C86.378 42.5041 89.116 43.2081 90.3525 45.3201Z" fill="#FFCA04"/>
<path opacity="0.2" fill-rule="evenodd" clip-rule="evenodd" d="M193.6 11C195.72 7.47996 200.312 6.07196 203.845 8.00796C207.378 9.85596 208.526 14.256 206.406 17.776C204.287 21.296 199.694 22.704 196.161 20.768C192.628 18.92 191.48 14.52 193.6 11Z" fill="#313689"/>
<path opacity="0.2" fill-rule="evenodd" clip-rule="evenodd" d="M162.688 13.8158C166.132 7.65581 174.081 5.45581 180.175 8.97581C186.358 12.4078 188.566 20.2398 185.033 26.3998C181.588 32.5598 173.639 34.7598 167.545 31.2398C161.363 27.8078 159.243 20.0638 162.688 13.8158Z" fill="#29AAE0"/>
<path opacity="0.2" fill-rule="evenodd" clip-rule="evenodd" d="M185.209 50.6879C187.064 47.5199 191.127 46.3759 194.307 48.1359C197.486 49.8959 198.634 54.0319 196.868 57.1999C195.013 60.3679 190.95 61.5119 187.771 59.7519C184.591 57.9039 183.443 53.8559 185.209 50.6879Z" fill="#313689"/>
<path opacity="0.2" fill-rule="evenodd" clip-rule="evenodd" d="M212.324 48.4878C214.09 45.5838 217.8 44.5278 220.715 46.0238C223.629 47.5198 224.512 51.0398 222.746 53.8558C220.98 56.7598 217.182 57.8158 214.355 56.4078C211.529 54.8238 210.646 51.3038 212.324 48.4878Z" fill="#FFCA04"/>
<path opacity="0.2" fill-rule="evenodd" clip-rule="evenodd" d="M175.848 40.3038C176.907 38.4558 179.204 37.8398 181.058 38.8078C182.913 39.8638 183.531 42.1518 182.56 43.9998C181.5 45.8478 179.204 46.4638 177.349 45.4958C175.494 44.4398 174.876 42.1518 175.848 40.3038Z" fill="#313689"/>
<path d="M230.342 45.1441C230.518 46.4641 230.607 47.6961 230.783 49.0161C230.783 49.0161 193.777 34.2321 170.283 34.2321C146.79 34.2321 13.4248 34.2321 13.4248 34.2321V30.5361C13.4248 30.5361 146.79 30.5361 170.283 30.5361C192.187 30.6241 226.367 43.5601 230.342 45.1441Z" fill="#4D5261"/>
<path opacity="0.48" d="M126.653 0.0878906H50.1665L116.142 65.8239C126.653 76.2959 143.787 76.2959 154.385 65.8239C164.896 55.3519 164.896 38.2799 154.385 27.7199L126.653 0.0878906Z" fill="white"/>
<path opacity="0.5" d="M113.316 11.088C77.1043 11.088 39.2145 9.67995 13.3364 11.352V4.75195H214.355C221.156 4.75195 226.279 20.152 229.017 36.08C201.549 20.856 158.625 11.088 113.316 11.088Z" fill="#BCCEF4"/>
<path d="M230.695 49.8961C230.872 49.8961 231.048 49.8081 231.225 49.7201C231.49 49.5441 231.578 49.2801 231.578 48.9281C230.165 33.3521 224.689 3.87207 214.356 3.87207H13.3366C12.8067 3.87207 12.4534 4.22407 12.4534 4.75207V34.2321C12.4534 34.7601 12.8067 35.1121 13.3366 35.1121H170.195C193.247 35.1121 230.077 49.6321 230.43 49.8081C230.518 49.8081 230.607 49.8961 230.695 49.8961ZM214.356 5.63207C221.421 5.63207 227.604 26.7521 229.723 47.6081C222.834 44.9681 191.039 33.3521 170.195 33.3521H14.2198V5.63207H214.356Z" fill="#4D5261"/>
<path d="M131.952 35.112C132.482 35.112 132.835 34.76 132.835 34.232V5.63195C132.835 5.10395 132.482 4.75195 131.952 4.75195C131.422 4.75195 131.069 5.10395 131.069 5.63195V34.232C131.069 34.76 131.422 35.112 131.952 35.112Z" fill="#4D5261"/>
<path d="M93.9738 35.1121C94.5037 35.1121 94.857 34.7601 94.857 34.2321V4.75207C94.857 4.22407 94.5037 3.87207 93.9738 3.87207C93.4439 3.87207 93.0906 4.22407 93.0906 4.75207V34.2321C93.0906 34.7601 93.4439 35.1121 93.9738 35.1121Z" fill="#4D5261"/>
<path d="M169.93 35.112C170.46 35.112 170.813 34.76 170.813 34.232V5.63195C170.813 5.10395 170.46 4.75195 169.93 4.75195C169.4 4.75195 169.047 5.10395 169.047 5.63195V34.232C169.047 34.76 169.4 35.112 169.93 35.112Z" fill="#4D5261"/>
<path d="M9.45035 76.648H236.171C236.612 76.648 237.054 76.296 237.054 75.768L237.319 49.808V49.72C237.142 47.608 232.285 0 214.355 0H13.3365C10.6868 0 8.56714 2.112 8.56714 4.752V75.768C8.56714 76.296 8.92042 76.648 9.45035 76.648ZM10.3336 74.888V4.752C10.3336 3.08 11.6584 1.76 13.3365 1.76H214.355C230.43 1.76 235.376 48.048 235.553 49.808L235.199 74.888H10.3336Z" fill="#4D5261"/>
<path d="M214.356 4.75195C223.011 4.75195 228.929 29.832 230.695 49.016C230.695 49.016 219.302 44.44 205.17 40.392V4.75195H214.356Z" fill="#64788F"/>
<path opacity="0.85" d="M135.131 73.0402C149.765 73.0402 161.628 61.2206 161.628 46.6402C161.628 32.0599 149.765 20.2402 135.131 20.2402C120.498 20.2402 108.635 32.0599 108.635 46.6402C108.635 61.2206 120.498 73.0402 135.131 73.0402Z" fill="white"/>
<path d="M204.905 76.384C205.435 76.384 205.788 76.032 205.788 75.504V5.63195C205.788 5.10395 205.435 4.75195 204.905 4.75195C204.375 4.75195 204.022 5.10395 204.022 5.63195V75.504C204.022 75.944 204.464 76.384 204.905 76.384Z" fill="#4D5261"/>
<path d="M230.695 76.6482C231.225 76.6482 231.578 76.2962 231.578 75.7682V49.0162C231.578 48.4882 231.225 48.1362 230.695 48.1362C230.165 48.1362 229.812 48.4882 229.812 49.0162V75.8562C229.812 76.2962 230.253 76.6482 230.695 76.6482Z" fill="#4D5261"/>
<path d="M55.9074 35.112C56.4373 35.112 56.7906 34.76 56.7906 34.232V5.63195C56.7906 5.10395 56.4373 4.75195 55.9074 4.75195C55.3775 4.75195 55.0242 5.10395 55.0242 5.63195V34.232C55.0242 34.76 55.4658 35.112 55.9074 35.112Z" fill="#4D5261"/>
<path d="M234.316 55.2639C234.581 55.2639 234.846 55.2639 235.111 55.2639C235.464 55.2639 235.906 55.2639 236.347 55.2639C236.877 55.2639 237.231 54.9119 237.231 54.3839V49.2799C237.231 49.0159 237.142 48.7519 236.966 48.6639C236.701 48.4879 236.524 48.3999 236.259 48.3999C233.963 48.6639 232.196 50.5999 232.196 52.9759C232.196 53.5039 232.285 54.2959 232.726 54.7359C233.168 55.1759 233.786 55.2639 234.316 55.2639ZM235.464 53.4159C235.288 53.4159 235.199 53.4159 235.023 53.4159C234.758 53.4159 234.493 53.4159 234.316 53.4159C234.139 53.4159 234.051 53.4159 233.963 53.4159C233.963 53.4159 233.963 53.2399 233.963 52.8879C233.963 51.8319 234.581 50.8639 235.464 50.4239V53.4159Z" fill="#4D5261"/>
<path d="M238.644 5.98389C239.969 5.98389 241.117 7.12789 241.117 8.44789V23.2319C241.117 24.5519 239.969 25.6959 238.644 25.6959H235.818V5.98389H238.644Z" fill="#D4DDF2"/>
<path d="M235.906 26.576H238.644C240.499 26.576 242 25.08 242 23.232V8.448C242 6.6 240.499 5.104 238.644 5.104H235.818C235.288 5.104 234.934 5.456 234.934 5.984V25.696C235.023 26.224 235.376 26.576 235.906 26.576ZM238.644 6.864C239.527 6.864 240.234 7.568 240.234 8.448V23.232C240.234 24.112 239.527 24.816 238.644 24.816H236.701V6.864H238.644Z" fill="#4D5261"/>
<path d="M135.131 70.928C148.594 70.928 159.508 60.0539 159.508 46.6401C159.508 33.2262 148.594 22.3521 135.131 22.3521C121.668 22.3521 110.755 33.2262 110.755 46.6401C110.755 60.0539 121.668 70.928 135.131 70.928Z" stroke="#F2644F" stroke-miterlimit="10"/>
<path d="M124.709 60.2798C124.798 60.2798 124.886 60.2798 124.974 60.2798C127.624 60.2798 130.185 60.2798 132.835 60.2798C132.923 60.2798 133.012 60.2798 133.1 60.2798C133.1 61.0718 133.1 61.7758 133.1 62.4798C130.274 62.4798 127.536 62.4798 124.709 62.4798C124.709 61.7758 124.709 61.0718 124.709 60.2798Z" fill="#7D8883"/>
<path d="M126.123 57.728C125.681 57.728 125.151 57.728 124.709 57.728C124.709 54.208 124.709 50.776 124.709 47.256C124.709 47.168 124.798 47.08 124.798 46.992C124.974 46.2 125.328 45.584 126.034 45.144C126.034 45.232 126.123 45.408 126.123 45.496C126.123 49.632 126.123 53.68 126.123 57.728Z" fill="#F27569"/>
<path d="M124.709 34.0559C124.798 33.8799 124.798 33.7039 124.886 33.6159C125.063 33.1759 125.239 32.7359 125.504 32.2959C125.504 32.4719 125.593 32.5599 125.593 32.7359C125.593 36.3439 125.593 40.0399 125.593 43.6479C125.328 43.6479 125.063 43.6479 124.709 43.6479C124.709 40.4799 124.709 37.3119 124.709 34.0559Z" fill="#F2746A"/>
<path d="M137.428 62.6559C137.428 62.5679 137.428 62.4799 137.428 62.3919C137.604 62.3919 137.869 62.3039 138.134 62.3039C137.958 61.5999 137.781 60.9839 137.604 60.2799C137.869 60.1919 137.958 60.2799 137.958 60.4559C138.046 60.9839 138.223 61.4239 138.311 61.9519C138.311 62.0399 138.311 62.1279 138.399 62.2159C138.753 62.0399 138.929 61.7759 138.929 61.4239C139.018 61.0719 139.018 60.6319 139.018 60.1919C139.106 60.1919 139.194 60.1919 139.371 60.1919C139.282 60.6319 139.282 61.1599 139.194 61.5999C139.106 62.1279 138.664 62.3919 138.134 62.4799C137.958 62.4799 137.781 62.5679 137.693 62.5679C137.604 62.6559 137.516 62.6559 137.428 62.6559Z" fill="#85908A"/>
<path d="M139.812 57.7277C139.106 57.7277 138.399 57.7277 137.693 57.7277C137.693 53.3277 137.693 49.0157 137.693 44.6157C138.399 44.6157 139.106 44.6157 139.812 44.6157C139.812 49.0157 139.812 53.4157 139.812 57.7277Z" fill="#FAB860"/>
<path d="M142.285 44.7036C142.992 44.7036 143.699 44.7036 144.405 44.7036C144.405 49.0156 144.405 53.4156 144.405 57.7276C143.699 57.7276 142.992 57.7276 142.285 57.7276C142.285 53.4156 142.285 49.0156 142.285 44.7036Z" fill="#FCCD5D"/>
<path d="M125.593 43.6479C125.593 40.0399 125.593 36.3439 125.593 32.7359C125.593 32.5599 125.504 32.4719 125.504 32.2959C126.034 31.5039 126.741 30.9759 127.712 30.7119C127.712 31.5039 127.712 32.2079 127.712 32.9999C127.359 33.2639 127.094 33.6159 127.006 34.0559C126.741 34.9359 126.918 35.7279 127.536 36.3439C127.536 36.4319 127.447 36.5199 127.447 36.6079C127.447 37.3119 127.447 38.0159 127.447 38.6319C127.271 38.5439 127.094 38.4559 126.918 38.4559C126.918 40.1279 126.918 41.7999 126.918 43.5599C126.388 43.6479 126.034 43.6479 125.593 43.6479Z" fill="#F37A69"/>
<path d="M142.462 35.376C143.345 35.64 144.052 36.168 144.582 36.872C146.437 39.248 145.288 42.68 142.374 43.56C142.285 43.56 142.197 43.648 142.02 43.648C142.02 43.208 142.02 42.768 142.02 42.328C142.02 42.064 142.02 41.8 141.932 41.536C143.08 41.008 143.434 39.864 143.169 38.808C143.08 38.28 142.727 37.84 142.285 37.488C142.285 37.312 142.374 37.136 142.374 37.048C142.462 36.432 142.462 35.904 142.462 35.376Z" fill="#FCCF5D"/>
<path d="M135.396 37.752C135.308 38.104 135.22 38.544 135.22 38.896C135.22 40.392 135.22 41.888 135.22 43.384C135.22 43.472 135.22 43.56 135.22 43.648C134.513 43.648 133.806 43.648 133.188 43.648C133.188 43.56 133.188 43.472 133.188 43.384C133.188 41.8 133.188 40.128 133.188 38.544C133.188 38.016 133.277 37.4 133.542 36.872C133.895 36.08 134.601 35.552 135.485 35.376C135.485 35.552 135.573 35.64 135.573 35.816C135.396 36.432 135.396 37.048 135.396 37.752Z" fill="#F7A263"/>
<path d="M126.123 57.7276C126.123 53.6796 126.123 49.5436 126.123 45.4956C126.123 45.4076 126.123 45.2316 126.034 45.1436C126.652 44.7916 127.271 44.7036 127.977 44.7036C127.977 45.4076 127.977 46.0236 127.977 46.7276C127.094 46.7276 126.829 47.3436 126.829 48.0476C126.829 48.4876 126.829 48.9276 126.829 49.3676C127.359 49.3676 127.977 49.3676 128.507 49.3676C128.507 50.0716 128.507 50.6876 128.507 51.3916C127.977 51.3916 127.447 51.3916 126.829 51.3916C126.829 53.5036 126.829 55.6156 126.829 57.8156C126.564 57.7276 126.387 57.7276 126.123 57.7276Z" fill="#F37D69"/>
<path d="M139.548 43.3839C138.134 42.7679 137.34 41.7999 136.986 40.3039C136.545 38.3679 137.516 36.4319 139.371 35.5519C139.459 35.4639 139.548 35.4639 139.724 35.4639C139.724 36.0799 139.724 36.6959 139.724 37.3119C139.724 37.4879 139.813 37.5759 139.813 37.7519C139.459 38.1039 139.194 38.4559 139.106 38.8959C138.929 39.6879 139.106 40.4799 139.636 41.0959C139.636 41.2719 139.548 41.3599 139.548 41.5359C139.548 42.0639 139.548 42.7679 139.548 43.3839Z" fill="#FAB661"/>
<path d="M130.715 30.8877C132.04 31.4157 132.923 32.4717 133.277 33.8797C133.718 35.6397 133.012 37.4877 131.422 38.5437C131.334 38.6317 131.245 38.6317 131.157 38.6317C131.157 37.8397 131.157 37.1357 131.157 36.3437C131.157 36.2557 131.069 36.1677 130.98 35.9917C131.422 35.0237 131.334 34.0557 130.627 33.2637C130.627 33.0877 130.715 32.9117 130.715 32.8237C130.715 32.1197 130.715 31.5037 130.715 30.8877Z" fill="#F69765"/>
<path d="M134.248 57.7277C133.895 57.7277 133.542 57.7277 133.188 57.7277C133.188 54.9117 133.188 52.1837 133.188 49.3677C133.542 49.3677 133.895 49.3677 134.248 49.3677C134.248 52.1837 134.248 54.9117 134.248 57.7277Z" fill="#F79F63"/>
<path d="M134.248 57.7277C134.248 54.9117 134.248 52.0957 134.248 49.3677C134.601 49.3677 134.866 49.3677 135.22 49.3677C135.22 52.1837 135.22 54.9117 135.22 57.7277C134.955 57.7277 134.601 57.7277 134.248 57.7277Z" fill="#F7A564"/>
<path d="M130.715 30.8878C130.715 31.5038 130.715 32.1198 130.715 32.7358C130.715 32.9118 130.715 33.0878 130.627 33.1758C129.832 32.3838 128.507 32.2958 127.624 32.9998C127.624 32.2078 127.624 31.5038 127.624 30.7118C128.684 30.3598 129.744 30.4478 130.715 30.8878Z" fill="#F58968"/>
<path d="M139.724 37.6636C139.724 37.4876 139.636 37.3996 139.636 37.2236C139.636 36.6076 139.636 35.9916 139.636 35.3756C140.342 35.0236 141.137 35.0236 141.932 35.1996C142.109 35.1996 142.285 35.2876 142.462 35.2876C142.462 35.8156 142.462 36.4316 142.462 36.9596C142.462 37.1356 142.462 37.3116 142.374 37.3996C141.49 37.0476 140.607 37.0476 139.724 37.6636Z" fill="#FBC25E"/>
<path d="M128.507 51.3917C128.507 50.6877 128.507 50.0717 128.507 49.3677C129.479 49.3677 130.45 49.3677 131.422 49.3677C131.422 50.0717 131.422 50.6877 131.422 51.3917C130.45 51.3917 129.479 51.3917 128.507 51.3917Z" fill="#F58C66"/>
<path d="M139.547 43.3838C139.547 42.7678 139.547 42.0638 139.547 41.4478C139.547 41.2718 139.547 41.1838 139.636 41.0078C140.342 41.7118 141.225 41.8878 142.197 41.5358C142.197 41.7998 142.197 42.0638 142.285 42.3278C142.285 42.7678 142.285 43.2078 142.285 43.6478C141.225 43.8238 140.342 43.7358 139.547 43.3838Z" fill="#FBC05F"/>
<path d="M134.16 45.6719C134.866 45.6719 135.396 46.1999 135.485 46.9039C135.485 47.6079 134.955 48.2239 134.248 48.2239C133.542 48.2239 133.012 47.6959 133.012 46.9919C132.923 46.1999 133.453 45.6719 134.16 45.6719Z" fill="#F7A264"/>
<path d="M127.977 46.7276C127.977 46.0236 127.977 45.4076 127.977 44.7036C128.772 44.7036 129.567 44.7036 130.362 44.7036C130.362 45.4076 130.362 46.0236 130.362 46.7276C129.567 46.7276 128.772 46.7276 127.977 46.7276Z" fill="#F58966"/>
<path d="M131.069 35.9038C131.157 35.9918 131.245 36.0798 131.245 36.2558C131.245 37.0478 131.245 37.7518 131.245 38.5438C130.715 38.8958 130.009 39.0718 129.391 39.0718C129.391 38.3678 129.391 37.7518 129.302 37.0478C130.009 36.9598 130.627 36.6078 131.069 35.9038Z" fill="#F58F67"/>
<path d="M129.302 37.136C129.302 37.84 129.302 38.456 129.391 39.16C128.684 39.248 128.066 39.16 127.448 38.808C127.448 38.104 127.448 37.4 127.448 36.784C127.448 36.696 127.536 36.608 127.536 36.52C127.977 36.96 128.596 37.136 129.302 37.136Z" fill="#F48468"/>
<path d="M130.362 46.7276C130.362 46.0236 130.362 45.4076 130.362 44.7036C130.98 44.7036 131.599 44.7036 132.217 44.7036C132.217 45.4076 132.217 46.0236 132.217 46.7276C131.599 46.7276 130.98 46.7276 130.362 46.7276Z" fill="#F6976C"/>
<path d="M135.396 37.7517C135.396 37.1357 135.396 36.4317 135.396 35.8157C135.396 35.6397 135.396 35.5517 135.308 35.3757C135.75 35.2877 136.28 35.2877 136.721 35.1997C136.81 35.1997 136.898 35.2877 136.898 35.3757C136.898 35.9917 136.898 36.5197 136.898 37.1357C136.898 37.3117 136.81 37.3117 136.633 37.3117C136.28 37.3117 135.926 37.3117 135.573 37.5757C135.573 37.5757 135.485 37.6637 135.396 37.7517Z" fill="#F8AC63"/>
<path d="M134.513 60.1919C134.955 60.1919 135.396 60.1919 135.75 60.2799C136.015 60.2799 136.191 60.4559 136.191 60.7199C136.191 61.3359 136.191 61.8639 136.191 62.4799C135.661 62.4799 135.131 62.4799 134.513 62.4799C134.513 61.7759 134.513 60.9839 134.513 60.1919ZM135.926 62.3039C135.926 61.7759 135.926 61.3359 135.926 60.8079C135.926 60.6319 135.838 60.4559 135.573 60.4559C135.308 60.4559 135.131 60.4559 134.866 60.4559C134.866 61.0719 134.866 61.6879 134.866 62.2159C135.22 62.3039 135.573 62.3039 135.926 62.3039Z" fill="#85908A"/>
<path d="M139.901 60.5439C139.812 60.4559 139.812 60.3679 139.724 60.2799C139.724 60.2799 139.724 60.1919 139.812 60.1919C140.166 60.1919 140.519 60.1919 140.784 60.1919C141.137 60.1919 141.402 60.4559 141.402 60.7199C141.491 61.0719 141.491 61.4239 141.402 61.7759C141.314 62.3039 140.961 62.5679 140.519 62.4799C140.077 62.4799 139.812 62.1279 139.724 61.5999C139.724 61.2479 139.724 60.9839 139.901 60.5439ZM140.077 61.4239C140.077 61.5999 140.166 61.7759 140.166 61.9519C140.254 62.2159 140.431 62.3039 140.696 62.3039C140.961 62.3039 141.137 62.2159 141.226 61.9519C141.314 61.5999 141.314 61.2479 141.226 60.8079C141.137 60.5439 140.961 60.4559 140.519 60.4559C140.254 60.4559 140.254 60.7199 140.166 60.8079C140.077 60.9839 140.077 61.2479 140.077 61.4239Z" fill="#828E88"/>
<path d="M144.494 62.5678C144.405 62.5678 144.317 62.5678 144.229 62.5678C144.229 62.3038 144.229 61.9518 144.229 61.6878C144.229 61.5118 144.229 61.2478 144.229 61.0718C144.229 60.7198 144.052 60.5438 143.699 60.5438C143.522 60.5438 143.434 60.5438 143.257 60.5438C143.08 60.5438 142.992 60.5438 142.815 60.5438C142.727 60.3678 142.815 60.2798 142.992 60.2798C143.257 60.2798 143.522 60.2798 143.875 60.2798C144.317 60.3678 144.494 60.5438 144.494 60.9838C144.494 61.5118 144.494 61.9518 144.494 62.5678Z" fill="#828E88"/>
<path d="M137.074 60.2798C137.074 60.6318 137.074 61.0718 137.074 61.4238C137.074 61.5998 136.898 61.6878 136.81 61.8638H136.721C136.721 61.3358 136.721 60.8958 136.721 60.3678C136.898 60.2798 136.986 60.2798 137.074 60.2798Z" fill="#8F9994"/>
<path d="M143.169 62.4798C143.08 62.4798 142.992 62.4798 142.904 62.4798C142.904 61.9518 142.904 61.5118 142.904 61.0718C142.992 61.0718 143.08 61.0718 143.169 61.0718C143.169 61.5998 143.169 62.0398 143.169 62.4798Z" fill="#828E88"/>
<path d="M142.021 60.2798H142.109C142.197 60.2798 142.197 60.2798 142.285 60.2798C142.285 60.6318 142.285 61.0718 142.285 61.4238C142.285 61.5118 142.109 61.5998 142.109 61.7758C142.109 61.7758 142.109 61.7758 142.021 61.7758C142.021 61.2478 142.021 60.7198 142.021 60.2798Z" fill="#85908A"/>
<path d="M198.104 74.6239C198.104 81.0479 192.893 86.2399 186.446 86.2399C179.998 86.2399 174.787 81.0479 174.787 74.6239C174.787 68.1999 179.998 63.0079 186.446 63.0079C192.805 62.9199 198.104 68.1999 198.104 74.6239Z" fill="#4D5261"/>
<path d="M186.358 87.1199C193.247 87.1199 198.899 81.4879 198.899 74.6239C198.899 67.7599 193.247 62.1279 186.358 62.1279C179.468 62.1279 173.816 67.7599 173.816 74.6239C173.816 81.4879 179.468 87.1199 186.358 87.1199ZM186.358 63.7999C192.275 63.7999 197.133 68.6399 197.133 74.5359C197.133 80.4319 192.275 85.2719 186.358 85.2719C180.44 85.2719 175.582 80.4319 175.582 74.5359C175.582 68.6399 180.44 63.7999 186.358 63.7999Z" fill="#4D5261"/>
<path d="M186.358 80.2559C189.537 80.2559 192.098 77.7039 192.098 74.5359C192.098 71.3679 189.537 68.8159 186.358 68.8159C183.178 68.8159 180.617 71.3679 180.617 74.5359C180.617 77.7039 183.266 80.2559 186.358 80.2559Z" fill="#D4DDF2"/>
<path d="M186.358 68.904C183.178 68.904 180.617 71.456 180.617 74.624C180.617 77.792 183.178 80.344 186.358 80.344C189.537 80.344 192.099 77.792 192.099 74.624C192.099 71.456 189.537 68.904 186.358 68.904ZM186.358 67.144C190.509 67.144 193.865 70.488 193.865 74.624C193.865 78.76 190.509 82.104 186.358 82.104C182.207 82.104 178.85 78.76 178.85 74.624C178.85 70.488 182.295 67.144 186.358 67.144Z" fill="#4D5261"/>
<path d="M85.7597 74.6239C85.7597 81.0479 80.5487 86.2399 74.1013 86.2399C67.6538 86.2399 62.4429 81.0479 62.4429 74.6239C62.4429 68.1999 67.6538 63.0079 74.1013 63.0079C80.4604 62.9199 85.7597 68.1999 85.7597 74.6239Z" fill="#4D5261"/>
<path d="M74.013 87.1199C80.9904 87.1199 86.5547 81.4879 86.5547 74.6239C86.5547 67.7599 80.9021 62.1279 74.013 62.1279C67.124 62.1279 61.4714 67.7599 61.4714 74.6239C61.4714 81.4879 67.124 87.1199 74.013 87.1199ZM74.013 63.7999C80.0189 63.7999 84.7882 68.6399 84.7882 74.5359C84.7882 80.4319 79.9306 85.2719 74.013 85.2719C68.0955 85.2719 63.2379 80.4319 63.2379 74.5359C63.2379 68.6399 68.0955 63.7999 74.013 63.7999Z" fill="#4D5261"/>
<path d="M74.0131 80.2559C77.1927 80.2559 79.754 77.7039 79.754 74.5359C79.754 71.3679 77.1927 68.8159 74.0131 68.8159C70.8335 68.8159 68.2722 71.3679 68.2722 74.5359C68.2722 77.7039 70.8335 80.2559 74.0131 80.2559Z" fill="#D4DDF2"/>
<path d="M74.0129 68.904C70.8334 68.904 68.272 71.456 68.272 74.624C68.272 77.792 70.8334 80.344 74.0129 80.344C77.1925 80.344 79.7538 77.792 79.7538 74.624C79.7538 71.456 77.1925 68.904 74.0129 68.904ZM74.0129 67.144C78.164 67.144 81.5202 70.488 81.5202 74.624C81.5202 78.76 78.164 82.104 74.0129 82.104C69.8618 82.104 66.5056 78.76 66.5056 74.624C66.5056 70.488 69.8618 67.144 74.0129 67.144Z" fill="#4D5261"/>
<path d="M56.8788 74.6239C56.8788 81.0479 51.6679 86.2399 45.2204 86.2399C38.773 86.2399 33.562 81.0479 33.562 74.6239C33.562 68.1999 38.773 63.0079 45.2204 63.0079C51.6679 62.9199 56.8788 68.1999 56.8788 74.6239Z" fill="#4D5261"/>
<path d="M45.2203 87.1199C52.1094 87.1199 57.7619 81.4879 57.7619 74.6239C57.7619 67.7599 52.1094 62.1279 45.2203 62.1279C38.3313 62.1279 32.6787 67.7599 32.6787 74.6239C32.6787 81.4879 38.3313 87.1199 45.2203 87.1199ZM45.2203 63.7999C51.1378 63.7999 55.9955 68.6399 55.9955 74.5359C55.9955 80.4319 51.1378 85.2719 45.2203 85.2719C39.3028 85.2719 34.4451 80.4319 34.4451 74.5359C34.4451 68.6399 39.3028 63.7999 45.2203 63.7999Z" fill="#4D5261"/>
<path d="M45.2204 80.2559C48.3999 80.2559 50.9612 77.7039 50.9612 74.5359C50.9612 71.3679 48.3999 68.8159 45.2204 68.8159C42.0408 68.8159 39.4795 71.3679 39.4795 74.5359C39.4795 77.7039 42.0408 80.2559 45.2204 80.2559Z" fill="#D4DDF2"/>
<path d="M45.2204 68.904C42.0409 68.904 39.4796 71.456 39.4796 74.624C39.4796 77.792 42.0409 80.344 45.2204 80.344C48.4 80.344 50.9613 77.792 50.9613 74.624C50.9613 71.456 48.4 68.904 45.2204 68.904ZM45.2204 67.144C49.3715 67.144 52.7277 70.488 52.7277 74.624C52.7277 78.76 49.3715 82.104 45.2204 82.104C41.0693 82.104 37.7131 78.76 37.7131 74.624C37.7131 70.488 41.0693 67.144 45.2204 67.144Z" fill="#4D5261"/>
</svg>
