<?xml version="1.0" standalone="no"?>
<!DOCTYPE svg PUBLIC "-//W3C//DTD SVG 20010904//EN"
 "http://www.w3.org/TR/2001/REC-SVG-20010904/DTD/svg10.dtd">
<svg version="1.0" xmlns="http://www.w3.org/2000/svg"
 width="5120.000000pt" height="5120.000000pt" viewBox="0 0 5120.000000 5120.000000"
 preserveAspectRatio="xMidYMid meet">

<g transform="translate(0.000000,5120.000000) scale(0.100000,-0.100000)"
fill="#000000" stroke="none">
<path d="M16280 41039 c-959 -72 -1871 -444 -2625 -1070 -137 -114 -416 -390
-535 -529 -478 -559 -808 -1190 -984 -1885 l-33 -130 -1654 -5 -1654 -5 -65
-23 c-207 -75 -351 -238 -395 -449 -12 -57 -15 -266 -15 -1280 l0 -1213 -431
0 c-394 0 -439 -2 -530 -20 -466 -95 -813 -435 -932 -910 l-21 -85 -3 -2423
c-4 -2641 -6 -2516 53 -2702 112 -357 398 -651 749 -770 200 -68 111 -65 1655
-65 1488 0 1447 -1 1625 50 394 114 706 440 817 855 l23 85 2 2460 c4 2683 6
2533 -53 2710 -120 360 -399 639 -759 759 -149 50 -216 56 -621 56 l-374 0 0
885 0 885 1235 0 1235 0 -2 -9067 -3 -9066 -89 -24 c-382 -101 -740 -352 -981
-688 -131 -181 -245 -447 -297 -690 -20 -94 -21 -134 -25 -695 -5 -663 -1
-737 52 -945 169 -658 685 -1153 1359 -1302 l121 -27 1213 -3 1212 -4 0 -912
c0 -936 4 -1048 41 -1229 67 -331 260 -684 501 -914 291 -279 656 -450 1050
-493 133 -15 1984 -15 2116 0 217 24 399 79 609 184 489 245 828 691 945 1241
23 109 23 113 28 1113 l5 1004 5745 0 5745 0 5 -1004 c5 -1002 5 -1004 28
-1114 153 -724 706 -1268 1429 -1407 l118 -23 1060 0 c987 0 1067 1 1165 19
369 65 695 232 955 491 309 307 484 677 525 1110 6 67 10 470 10 1022 l0 912
1213 3 1212 3 105 23 c692 154 1217 657 1380 1322 48 199 52 263 48 915 -4
677 -5 686 -90 940 -184 553 -657 1000 -1214 1148 l-89 24 -3 9066 -2 9067
1245 0 1245 0 0 -885 0 -885 -374 0 c-405 0 -472 -6 -621 -56 -360 -120 -639
-399 -759 -759 -59 -177 -57 -27 -54 -2710 l3 -2460 27 -98 c118 -426 444
-749 865 -856 155 -40 262 -42 1653 -38 1318 3 1336 3 1425 24 127 30 224 65
321 117 310 165 533 463 610 816 18 82 19 181 19 2535 0 2351 -1 2453 -19
2535 -104 477 -463 834 -935 930 -91 18 -136 20 -530 20 l-431 0 0 1213 c0
1014 -3 1223 -15 1280 -44 211 -188 374 -395 449 l-65 23 -1663 5 -1664 5 -28
110 c-276 1092 -928 2036 -1856 2687 -674 472 -1468 753 -2313 818 -168 12
-18429 11 -18601 -1z m18700 -1212 c447 -68 777 -171 1135 -356 584 -301 1047
-736 1390 -1306 280 -464 440 -990 475 -1555 6 -108 10 -3320 10 -9322 l0
-9158 -12400 0 -12400 0 0 9158 c0 6031 4 9211 10 9315 19 293 58 524 131 773
209 715 641 1337 1244 1789 184 138 318 220 540 330 287 142 537 228 838 289
118 24 328 52 432 59 28 2 4197 3 9265 2 8703 0 9221 -1 9330 -18z m-24840
-8862 l0 -2295 -1270 0 -1270 0 0 2295 0 2295 1270 0 1270 0 0 -2295z m33460
0 l0 -2295 -1270 0 -1270 0 0 2288 c0 1259 3 2292 7 2295 3 4 575 7 1270 7
l1263 0 0 -2295z m-21832 -15047 l2 -1008 -4747 0 c-4133 0 -4755 2 -4803 15
-197 52 -365 222 -415 420 -22 88 -22 1052 0 1140 57 224 268 414 485 438 19
2 2159 3 4755 3 l4720 -1 3 -1007z m6442 2 l0 -1010 -2620 0 -2620 0 0 1010 0
1010 2620 0 2620 0 0 -1010z m10784 977 c100 -35 169 -81 245 -162 66 -71 122
-176 140 -263 7 -34 11 -231 11 -560 0 -426 -3 -517 -15 -567 -53 -200 -218
-368 -415 -420 -48 -13 -670 -15 -4802 -15 l-4748 0 0 1003 c0 552 3 1007 7
1010 3 4 2142 6 4752 5 l4746 -3 79 -28z m-20346 -4100 c2 -1008 4 -985 -63
-1126 -46 -97 -161 -213 -255 -260 -131 -63 -83 -61 -1129 -61 -1045 0 -1008
-2 -1131 60 -130 66 -245 198 -292 338 l-23 67 -3 948 -2 947 1447 -2 1448 -3
3 -908z m16782 -16 l0 -929 -23 -80 c-58 -199 -217 -356 -413 -406 -54 -14
-178 -16 -1017 -16 l-956 0 -79 25 c-198 63 -354 235 -397 440 -12 59 -15 218
-15 976 0 498 3 909 7 912 3 4 656 7 1450 7 l1443 0 0 -929z"/>
<path d="M16460 36385 c-463 -73 -839 -415 -968 -882 l-27 -98 -3 -2320 c-2
-1689 0 -2342 8 -2400 36 -248 166 -494 361 -680 199 -190 438 -298 717 -325
148 -14 17902 -14 18062 0 548 48 984 446 1085 989 13 73 15 350 15 2366 0
2508 4 2357 -60 2547 -61 181 -161 338 -305 476 -187 182 -403 290 -655 328
-137 20 -18098 19 -18230 -1z m18058 -3347 l-3 -2163 -8932 -3 -8933 -2 0
2165 0 2165 8935 0 8935 0 -2 -2162z"/>
<path d="M17025 25229 c-131 -12 -303 -43 -443 -80 -719 -190 -1346 -730
-1647 -1419 -144 -329 -207 -635 -208 -1005 -1 -424 79 -769 263 -1136 350
-699 995 -1190 1765 -1344 198 -39 309 -48 554 -42 238 5 357 20 559 72 893
226 1603 942 1822 1837 56 230 65 310 65 603 0 215 -4 293 -18 380 -75 452
-250 850 -527 1200 -151 191 -421 430 -640 565 -455 283 -1010 415 -1545 369z
m485 -1214 c521 -113 926 -520 1029 -1033 76 -377 -9 -756 -239 -1061 -198
-262 -500 -448 -825 -508 -133 -25 -360 -22 -492 6 -410 86 -755 354 -932 724
-82 170 -119 324 -127 522 -16 379 117 716 386 985 203 204 444 328 730 375
108 18 365 13 470 -10z"/>
<path d="M33780 25233 c-618 -43 -1181 -296 -1611 -723 -396 -394 -633 -855
-726 -1415 -14 -88 -18 -165 -18 -380 0 -293 9 -374 65 -603 248 -1011 1103
-1769 2140 -1897 142 -17 440 -20 575 -5 405 45 788 184 1125 408 917 610
1330 1730 1030 2795 -167 595 -579 1131 -1125 1465 -420 256 -965 390 -1455
355z m350 -1208 c197 -30 382 -101 549 -213 112 -74 281 -243 354 -353 442
-667 215 -1555 -492 -1918 -197 -101 -376 -144 -601 -144 -375 -1 -703 140
-962 412 -177 186 -284 391 -339 654 -28 132 -31 359 -5 490 110 567 554 993
1121 1076 95 14 272 12 375 -4z"/>
<path d="M22705 24741 c-267 -77 -448 -330 -432 -606 7 -117 36 -206 98 -299
59 -90 129 -153 220 -201 133 -70 -105 -65 3003 -65 3123 0 2859 -6 3001 68
87 46 197 154 243 239 94 176 94 399 0 576 -45 85 -155 193 -243 239 -142 74
124 68 -3011 67 -2639 0 -2823 -2 -2879 -18z"/>
<path d="M22774 22439 c-237 -40 -425 -213 -484 -445 -83 -325 117 -653 446
-730 55 -12 435 -14 2881 -12 l2818 3 74 27 c232 85 385 288 399 529 15 273
-151 517 -413 607 l-80 27 -2795 1 c-1537 1 -2818 -2 -2846 -7z"/>
</g>
</svg>
