<svg id="Capa_1" enable-background="new 0 0 512 512" height="30" viewBox="0 0 512 512" width="30" xmlns="http://www.w3.org/2000/svg"><path d="m511.184 259.94c-.2-7.361-1.028-14.71-2.52-22.002-5.121-25.028-17.69-45.703-37.283-62.109-5.514-4.617-10.886-9.411-16.504-13.896-12.086-9.649-24.002-8.872-35.141 1.824-6.54 6.28-11.931 13.585-16.89 21.144-2.568 3.914-5.401 7.913-7.54 12.082-5.744 11.213-13.182 21.135-15.497 34.211-2.112 11.928.946 22.35 9.751 30.609 6.692 6.277 13.595 12.487 21.126 17.681 15 10.345 17.077 23.385 11.302 39.682-3.087 8.71-7.54 16.842-12.643 24.529-9.657 14.553-20.892 27.904-33.029 40.601-13.411 14.031-29.994 30.431-49.577 34.906-9.904 2.263-18.304-.48-25.599-7.43-7.166-6.828-14.298-13.719-21.838-20.119-12.405-10.53-26.202-11.096-40.173-3.667-18.799 9.996-33.662 24.866-49.065 39.555-3.099 2.955-5.547 6.755-7.7 10.509-5.816 10.14-5.181 20.115 3.119 28.226 11.353 11.095 22.632 22.421 36.544 30.536 17.51 10.212 36.354 15.226 56.631 15.189 24.779-.045 47.573-7.291 69.189-18.795 25.972-13.821 48.32-32.417 68.84-53.267 23.808-24.191 45.376-50.224 63.031-79.312 14.473-23.846 25.717-49.006 29.959-76.848 1.205-7.925 1.723-15.89 1.507-23.839z" fill="#fac600"/><path d="m509.68 283.775c-4.249 27.842-15.489 53.003-29.966 76.855-17.654 29.09-39.216 55.117-63.027 79.309-20.521 20.851-42.867 39.443-68.843 53.261-21.614 11.508-44.414 18.757-69.183 18.799-20.284.041-39.124-4.981-56.633-15.19-13.684-7.981-24.831-19.077-35.999-29.997 5.909 5.156 12.117 9.93 18.984 13.942 17.51 10.209 36.35 15.22 56.623 15.19 24.78-.052 47.579-7.301 69.193-18.799 25.976-13.818 48.322-32.421 68.843-53.272 23.81-24.192 45.373-50.219 63.027-79.309 14.478-23.841 25.718-49.002 29.966-76.845 1.207-7.93 1.722-15.891 1.505-23.841-.206-7.363-1.031-14.705-2.526-22.006-3.877-18.995-12.055-35.483-24.346-49.497 1.351 1.155 2.712 2.31 4.083 3.455 19.593 16.406 32.163 37.082 37.288 62.109 1.485 7.291 2.32 14.643 2.516 22.006.217 7.949-.299 15.91-1.505 23.83z" fill="#e0ae10"/><path d="m203.33 5.052c86.55 22.016 138.863 108.841 117.828 195.635-12.258 50.578-46.87 89.727-90.703 109.668-1.856.844-3.148 2.578-3.371 4.605-1.281 11.611-.989 24.606 2.492 37.989 1.211 4.655-3.46 8.682-7.845 6.703-11.055-4.99-28.134-14.946-42.065-32.942-1.175-1.517-3.04-2.315-4.954-2.18-18.011 1.268-36.561-.457-55.006-5.585-85.506-23.772-135.778-110.767-113.778-196.746 22.212-86.803 110.539-139.243 197.402-117.147z" fill="#0593fc"/><path d="m321.156 200.691c-12.261 50.57-46.868 89.724-90.704 109.668-1.856.846-3.145 2.578-3.372 4.599-1.279 11.611-.99 24.604 2.496 37.989 1.206 4.661-3.465 8.683-7.847 6.703-4.145-1.877-9.136-4.434-14.499-7.868-3.63-15.674-7.672-44.063 5.95-53.364 13.344-9.116 27.203-17.654 39.309-28.42 2.217-1.97 4.362-4.001 6.455-6.094 30.41-30.482 48.538-74.071 48.415-117.154-.124-40.743-22.109-89.693-51.931-117.505-.949-.887-1.908-1.753-2.877-2.609 55.922 36.555 85.269 105.316 68.605 174.055z" fill="#0182fc"/><circle cx="163.287" cy="162.469" fill="#ebebeb" r="116.951"/><path d="m280.24 162.468c0 64.592-52.361 116.953-116.953 116.953-13.104 0-25.712-2.153-37.48-6.14 5.9.921 11.936 1.393 18.091 1.393 64.592 0 116.953-52.361 116.953-116.945 0-51.504-33.285-95.228-79.522-110.829 56.028 8.677 98.911 57.116 98.911 115.568z" fill="#d3d1d1"/><path d="m216.266 257.047v9.708c-15.904 8.1-33.904 12.665-52.98 12.665s-37.076-4.565-52.98-12.665v-9.708c0-20.821 16.89-37.699 37.71-37.699h30.54c20.821 0 37.71 16.878 37.71 37.699z" fill="#fac600"/><path d="m216.266 257.05v9.708c-4.758 2.413-9.697 4.52-14.794 6.287v-10.614c0-19.937-9.028-36.883-26.858-43.079h3.942c20.821 0 37.71 16.878 37.71 37.698z" fill="#e0ae10"/><path d="m148.438 79.604-29.744 12.302c-6.323 2.615-9.647 9.585-7.701 16.144l4.263 14.365h48.029.001 48.029l4.263-14.365c1.947-6.559-1.378-13.529-7.7-16.144l-29.743-12.302c-9.508-3.933-20.189-3.933-29.697 0z" fill="#fac600"/><path d="m215.575 108.045-4.259 14.364h-15.983l5.075-20.594c1.473-4.973.397-10.15-2.537-14.058l10.014 4.146c6.32 2.617 9.639 9.583 7.69 16.142z" fill="#e0ae10"/><path d="m211.947 149.405h-.632v-26.991h-96.058v26.991h-.632c-5.892 0-10.668 4.776-10.668 10.668 0 5.892 4.776 10.668 10.668 10.668h.632v.342c0 19.148 15.523 34.671 34.671 34.671h26.716c19.148 0 34.671-15.523 34.671-34.671v-.342h.632c5.892 0 10.668-4.776 10.668-10.668 0-5.891-4.776-10.668-10.668-10.668z" fill="#fed2a4"/><path d="m222.617 160.073c0 5.889-4.778 10.667-10.668 10.667h-.637v.345c0 19.144-15.517 34.668-34.668 34.668h-9.961c18.039-1.216 32.295-16.239 32.295-34.59v-48.67l12.333-.078v26.991h.637c2.945 0 5.61 1.196 7.541 3.127s3.128 4.595 3.128 7.54z" fill="#ffbd86"/><path d="m163.287 122.414s-47.993 0-48.03 0c0 0 3.453 5.96 5.672 8.787 2.782 3.544 5.985 6.773 9.605 9.463 11.705 8.696 26.745 12.611 41.191 10.464 7.993-1.188 15.668-4.228 22.288-8.865 2.136-1.496 4.159-3.158 6.058-4.945 4.57-4.302 9.518-10.712 11.246-14.903h-48.03z" fill="#5a5a5a"/><path d="m211.316 122.409c-1.722 4.191-6.672 10.603-11.248 14.907-1.892 1.79-3.919 3.455-6.06 4.95-6.615 4.633-14.284 7.669-22.282 8.858-10.433 1.552-21.171-.057-30.743-4.35 5.619.952 11.384 1.042 17.06.204 7.997-1.189 15.666-4.236 22.293-8.869 2.129-1.495 4.157-3.16 6.06-4.95 3.229-3.036 6.65-7.137 8.983-10.75z" fill="#444"/><path d="m163.287 233.112c-7.555 0-13.68-6.125-13.68-13.68v-13.68h27.359v13.68c0 7.556-6.124 13.68-13.679 13.68z" fill="#fed2a4"/><path d="m149.603 205.758h27.368v10.943h-27.368z" fill="#ffbd86"/></svg>