<svg width="114" height="82" viewBox="0 0 114 82" fill="none" xmlns="http://www.w3.org/2000/svg">
<g clip-path="url(#clip0)">
<path d="M40.2671 55.25C40.2671 55.25 42.8255 80.267 19.339 79.5036" stroke="#ACB3BA" stroke-width="21" stroke-miterlimit="10" stroke-linecap="round"/>
<path d="M30.828 70.1043L28.3173 60.0688C28.0312 58.9556 27.046 58.1763 25.886 58.1763H17.6228L19.5774 63.186H23.9155L25.9495 71.313C26.2832 72.6489 27.634 73.4759 28.9847 73.142C30.3513 72.808 31.1617 71.4402 30.828 70.1043Z" fill="#F8B64C"/>
<path d="M20.8804 62.7727C20.8804 65.6513 19.7045 68.2755 17.8294 70.168C17.2414 70.7565 16.5899 71.2654 15.8748 71.7107C14.3016 72.665 12.4265 73.2375 10.4402 73.2375C4.67187 73.2216 0 68.5458 0 62.7727C0 59.894 1.17591 57.2699 3.05102 55.3773C4.46529 53.9618 6.29272 52.944 8.34263 52.5305C9.02593 52.4033 9.70923 52.3237 10.4243 52.3237C11.4413 52.3237 12.4265 52.4669 13.3482 52.7372C14.2381 52.9917 15.0803 53.3734 15.8589 53.8346C16.574 54.264 17.2255 54.7889 17.8135 55.3773C18.0042 55.5682 18.1949 55.7749 18.3697 55.9817C19.9428 57.8106 20.8804 60.1803 20.8804 62.7727Z" fill="#707487"/>
<path d="M20.8804 62.7727C20.8804 65.6514 19.7045 68.2755 17.8294 70.1681C17.2414 70.7565 16.5899 71.2655 15.8748 71.7108V53.8506C16.5899 54.28 17.2414 54.8048 17.8294 55.3933C18.0201 55.5841 18.2107 55.7909 18.3855 55.9976C19.9428 57.8107 20.8804 60.1804 20.8804 62.7727Z" fill="#757982"/>
<path d="M18.3696 62.7725C18.3696 64.9673 17.4798 66.9553 16.0496 68.3866C15.986 68.4503 15.9384 68.498 15.8589 68.5616C14.4446 69.8975 12.5218 70.7086 10.4243 70.7086C6.03844 70.7086 2.49481 67.162 2.49481 62.7725C2.49481 60.5778 3.38469 58.5898 4.81486 57.1584C6.24502 55.7271 8.24725 54.8364 10.4243 54.8364C12.5218 54.8364 14.4287 55.6475 15.8589 56.9835C15.9225 57.0471 15.986 57.0948 16.0496 57.1584C17.4956 58.5898 18.3696 60.5778 18.3696 62.7725Z" fill="#E6EEFF"/>
<path d="M15.8748 44.8007C13.809 44.8007 12.1087 43.1149 12.1087 41.0315C12.1087 38.9639 13.7931 37.2622 15.8748 37.2622C17.9565 37.2622 19.6409 38.948 19.6409 41.0315C19.6409 43.1149 17.9406 44.8007 15.8748 44.8007Z" fill="#FFD15C"/>
<path d="M18.3697 62.7723C18.3697 64.967 17.4798 66.955 16.0496 68.3864C15.9861 68.45 15.9384 68.4977 15.8589 68.5613V56.9673C15.9225 57.0309 15.9861 57.0786 16.0496 57.1422C17.4957 58.5895 18.3697 60.5775 18.3697 62.7723Z" fill="#DAE2F2"/>
<path d="M19.625 41.0315C19.625 38.9639 17.9406 37.2622 15.8589 37.2622V44.8007C17.9406 44.8007 19.625 43.1149 19.625 41.0315Z" fill="#F8B64C"/>
<path d="M18.3697 47.2977V55.9813C18.1949 55.7746 18.0042 55.5678 17.8135 55.377C17.2255 54.7885 16.574 54.2796 15.8589 53.8343C15.0962 53.373 14.254 52.9914 13.3482 52.7369V58.1761C13.3482 59.5597 12.2199 60.6889 10.8375 60.6889C9.45496 60.6889 8.32672 59.5597 8.32672 58.1761V49.8105C8.32672 48.8563 8.85111 47.9975 9.70921 47.5681L14.7148 45.0552C15.0644 44.8803 15.4299 44.8008 15.7954 44.8008H15.8271C17.0825 44.8167 18.3697 45.7709 18.3697 47.2977Z" fill="#FFD15C"/>
<path d="M18.3697 47.2977V55.9813C18.1949 55.7746 18.0042 55.5678 17.8135 55.377C17.2255 54.7885 16.574 54.2796 15.8589 53.8343V44.8008C17.0825 44.8167 18.3697 45.7709 18.3697 47.2977Z" fill="#F8B64C"/>
<path d="M109.487 30.5824H112.506C113.333 30.5824 114.016 29.9144 114.016 29.0715V20.0221C114.016 19.1951 113.348 18.5112 112.506 18.5112H109.487C108.661 18.5112 107.977 19.1792 107.977 20.0221V29.0715C107.977 29.9144 108.661 30.5824 109.487 30.5824Z" fill="#40596B"/>
<path d="M34.1491 30.5824H37.1684C37.9947 30.5824 38.678 29.9144 38.678 29.0715V20.0221C38.678 19.1951 38.0106 18.5112 37.1684 18.5112H34.1491C33.3228 18.5112 32.6395 19.1792 32.6395 20.0221V29.0715C32.6395 29.9144 33.3228 30.5824 34.1491 30.5824Z" fill="#40596B"/>
<path d="M40.1876 30.5828H35.6747C34.8483 30.5828 34.165 29.9148 34.165 29.0719C34.165 28.2449 34.8324 27.561 35.6747 27.561H40.1876C40.1876 27.5769 40.1876 30.5828 40.1876 30.5828Z" fill="#334A5E"/>
<path d="M106.468 27.5767H110.981C111.807 27.5767 112.49 28.2446 112.49 29.0875C112.49 29.9146 111.823 30.5984 110.981 30.5984H106.468V27.5767Z" fill="#334A5E"/>
<path d="M47.7198 81.8573H41.6972C40.8709 81.8573 40.1876 81.1893 40.1876 80.3464V69.7861H49.2294V80.3464C49.2135 81.1893 48.5461 81.8573 47.7198 81.8573Z" fill="#5B5D6E"/>
<path d="M49.2294 69.7861H40.1876V77.3246H49.2294V69.7861Z" fill="#464655"/>
<path d="M104.974 81.8573H98.9515C98.1252 81.8573 97.4419 81.1893 97.4419 80.3464V69.7861H106.468V80.3464C106.468 81.1893 105.8 81.8573 104.974 81.8573Z" fill="#5B5D6E"/>
<path d="M106.484 69.7861H97.4419V77.3246H106.484V69.7861Z" fill="#464655"/>
<path d="M104.974 74.3188H41.6813C40.0128 74.3188 38.6621 72.9669 38.6621 71.297V3.45047C38.6621 1.78055 40.0128 0.428711 41.6813 0.428711H104.958C106.627 0.428711 107.977 1.78055 107.977 3.45047V71.3129C107.977 72.9669 106.627 74.3188 104.974 74.3188Z" fill="#5590E6"/>
<path d="M49.2135 65.2694V15.5057H101.955V9.4781C101.955 7.80818 100.604 6.45633 98.9356 6.45633H50.7232C49.8968 6.45633 49.2135 5.78836 49.2135 4.94545V3.45047C49.2135 1.78055 50.5643 0.428711 52.2328 0.428711H41.6813C40.0128 0.428711 38.6621 1.78055 38.6621 3.45047V71.3129C38.6621 72.9828 40.0128 74.3347 41.6813 74.3347H104.958C106.627 74.3347 107.977 72.9828 107.977 71.3129V66.7962H50.7232C49.8968 66.7803 49.2135 66.0964 49.2135 65.2694Z" fill="#5590E6"/>
<path d="M48.4667 62.2475C50.5466 62.2475 52.2328 60.5599 52.2328 58.4782C52.2328 56.3965 50.5466 54.709 48.4667 54.709C46.3867 54.709 44.7006 56.3965 44.7006 58.4782C44.7006 60.5599 46.3867 62.2475 48.4667 62.2475Z" fill="white"/>
<path d="M98.1887 62.2475C100.269 62.2475 101.955 60.5599 101.955 58.4782C101.955 56.3965 100.269 54.709 98.1887 54.709C96.1088 54.709 94.4226 56.3965 94.4226 58.4782C94.4226 60.5599 96.1088 62.2475 98.1887 62.2475Z" fill="white"/>
<path d="M88.4 62.2474H58.2553C57.429 62.2474 56.7457 61.5794 56.7457 60.7365C56.7457 59.8936 57.4131 59.2256 58.2553 59.2256H88.3842C89.2105 59.2256 89.8938 59.8936 89.8938 60.7365C89.8938 61.5794 89.2264 62.2474 88.4 62.2474Z" fill="#FFDC64"/>
<path d="M100.445 48.6814H46.2102C45.3839 48.6814 44.7006 48.0611 44.7006 47.2818V16.4757C44.7006 15.6964 45.368 15.0762 46.2102 15.0762H100.445C101.272 15.0762 101.955 15.6964 101.955 16.4757V47.2818C101.955 48.0611 101.287 48.6814 100.445 48.6814Z" fill="#54C0EB"/>
<path d="M82.3615 10.8775H64.2938C63.4675 10.8775 62.7842 10.2573 62.7842 9.47796V6.67885C62.7842 5.89955 63.4516 5.2793 64.2938 5.2793H82.3774C83.2038 5.2793 83.8871 5.89955 83.8871 6.67885V9.47796C83.8712 10.2573 83.2037 10.8775 82.3615 10.8775Z" fill="#707487"/>
<path d="M50.7232 10.8458C52.3906 10.8458 53.7424 9.49288 53.7424 7.82401C53.7424 6.15514 52.3906 4.80225 50.7232 4.80225C49.0557 4.80225 47.7039 6.15514 47.7039 7.82401C47.7039 9.49288 49.0557 10.8458 50.7232 10.8458Z" fill="#FFDC64"/>
<path d="M95.9323 10.8458C97.5997 10.8458 98.9515 9.49288 98.9515 7.82401C98.9515 6.15514 97.5997 4.80225 95.9323 4.80225C94.2648 4.80225 92.913 6.15514 92.913 7.82401C92.913 9.49288 94.2648 10.8458 95.9323 10.8458Z" fill="#FFDC64"/>
<path d="M91.4034 15.0762H46.2102C45.3839 15.0762 44.7006 15.6964 44.7006 16.4757V47.2818C44.7006 48.0611 45.368 48.6814 46.2102 48.6814H55.252L71.826 33.2863V48.6814H74.8452V30.4872L91.4034 15.0762Z" fill="#54C0EB"/>
<path d="M75.179 15.0288L46.6393 48.6817C46.6393 48.6817 45.5746 48.8248 45.0502 48.1728C44.637 47.6638 44.7006 47.2821 44.7006 47.2821L71.9532 15.0288C72.7954 15.0288 73.4787 15.0288 74.3209 15.0288C74.6705 15.0288 74.8294 15.0288 75.179 15.0288Z" fill="#84DBFF"/>
<path d="M82.1232 15.0447L54.2032 48.6817H48.9434L77.3719 15.0288L82.1232 15.0447Z" fill="#84DBFF"/>
<path d="M48.4826 55.2815C50.4689 55.2815 52.058 56.7924 52.2487 58.7645C52.2487 58.6691 52.2487 58.5737 52.2487 58.4782C52.2487 56.4107 50.5484 54.709 48.4826 54.709C46.4168 54.709 44.7165 56.4107 44.7165 58.4782C44.7165 58.5737 44.7165 58.6691 44.7165 58.7645C44.8913 56.7924 46.4963 55.2815 48.4826 55.2815Z" fill="#F2F2F2"/>
<path d="M98.1887 55.2815C100.175 55.2815 101.764 56.7924 101.955 58.7645C101.955 58.6691 101.955 58.5737 101.955 58.4782C101.955 56.4107 100.255 54.709 98.1887 54.709C96.1229 54.709 94.4226 56.4107 94.4226 58.4782C94.4226 58.5737 94.4226 58.6691 94.4226 58.7645C94.6133 56.7924 96.2024 55.2815 98.1887 55.2815Z" fill="#F2F2F2"/>
</g>
<defs>
<clipPath id="clip0">
<rect y="0.428711" width="114" height="81.4286" fill="white"/>
</clipPath>
</defs>
</svg>
