<?xml version="1.0" encoding="iso-8859-1"?>
<svg width="25" height="25" viewBox="0 0 30 30" fill="none">
                      <path
                        d="M25.7196 21.5363L25.719 21.5353L16.9959 6.36955C16.9958 6.36943 16.9957 6.36932 16.9957 6.3692C16.5874 5.65783 15.8171 5.25 15.0207 5.25H15.0195C14.2232 5.25 13.4554 5.65635 13.0458 6.36574C13.0458 6.36579 13.0458 6.36585 13.0457 6.3659C13.0457 6.366 13.0456 6.3661 13.0456 6.3662L4.28316 21.5324L4.28151 21.5353C3.88771 22.2221 3.9075 23.0599 4.33822 23.726L4.33876 23.7269C4.76192 24.3798 5.49771 24.75 6.25679 24.75H23.7419C24.5013 24.75 25.2369 24.3817 25.6607 23.7257C26.0914 23.0601 26.1132 22.2224 25.7196 21.5363ZM15.0195 20.4167C14.9249 20.4167 14.8535 20.3815 14.8107 20.3418C14.7691 20.3032 14.7621 20.2702 14.7621 20.25C14.7621 20.2298 14.7691 20.1968 14.8107 20.1582C14.8535 20.1185 14.925 20.0834 15.0195 20.0834C15.113 20.0834 15.1847 20.1183 15.228 20.1585C15.2701 20.1975 15.2768 20.2305 15.2768 20.25C15.2768 20.2702 15.2698 20.3032 15.2283 20.3418C15.1854 20.3815 15.114 20.4167 15.0195 20.4167ZM15.2781 16.7687C15.2781 16.7891 15.2711 16.8219 15.2296 16.8604C15.1866 16.9002 15.1149 16.9353 15.0208 16.9353C14.9256 16.9353 14.8542 16.9 14.8117 16.8606C14.7706 16.8225 14.7634 16.7898 14.7634 16.7687V12.102C14.7634 12.0817 14.7704 12.0488 14.812 12.0102C14.8548 11.9705 14.9262 11.9353 15.0208 11.9353C15.1143 11.9353 15.186 11.9703 15.2293 12.0105C15.2714 12.0494 15.2781 12.0825 15.2781 12.102V16.7687Z"
                        fill="#EE0202" stroke="white" stroke-width="2" />
                    </svg>