<svg width="83" height="83" viewBox="0 0 83 83" fill="none" xmlns="http://www.w3.org/2000/svg">
<g clip-path="url(#clip0)">
<path d="M77.2938 49.6741C77.2938 58.4791 77.2938 67.106 77.2938 75.911C53.4313 75.911 29.5688 75.911 5.52795 75.911C5.52795 67.106 5.52795 58.4791 5.52795 49.6741C5.52795 47.2624 6.22502 45.0126 7.60295 42.7628C8.98088 40.513 9.67795 38.1014 9.67795 35.6897C9.67795 26.7067 9.67795 17.9017 9.67795 8.93483C9.67795 6.68502 11.4125 4.27336 13.6496 3.75542C31.9842 -1.24595 51.3401 -1.24595 69.6746 3.75542C71.9279 4.27336 73.6463 6.68502 73.6463 8.93483C73.6463 17.9179 73.6463 26.7229 73.6463 35.6897C73.6463 38.1014 74.3434 40.5292 75.7213 42.7628C76.5967 45.0126 77.2938 47.4405 77.2938 49.6741Z" fill="#A0D755"/>
<path d="M18.4967 82.9999H12.6283C10.7317 82.9999 9.17542 81.4461 9.17542 79.5524V75.9268H21.9658V79.5524C21.9658 81.4461 20.4096 82.9999 18.4967 82.9999Z" fill="#40596B"/>
<path d="M70.3717 82.9999H64.4871C62.5904 82.9999 61.0342 81.4461 61.0342 79.5524V75.9268H73.8246V79.5524C73.8408 81.4461 72.2846 82.9999 70.3717 82.9999Z" fill="#40596B"/>
<path d="M21.9658 75.9268V79.5524C21.9658 81.4461 20.4096 82.9999 18.5129 82.9999H12.6283C10.7317 82.9999 9.17542 81.4461 9.17542 79.5524V75.9268H21.9658Z" fill="#40596B"/>
<path d="M70.3717 82.9999H64.4871C62.5904 82.9999 61.0342 81.4461 61.0342 79.5524V75.9268H73.8246V79.5524C73.8408 81.4461 72.2846 82.9999 70.3717 82.9999Z" fill="#40596B"/>
<path d="M77.2938 75.9271H5.70627C4.15002 75.9271 2.77209 74.7131 2.77209 72.9975C2.77209 71.4437 3.98792 70.0679 5.70627 70.0679H77.2938C78.85 70.0679 80.228 71.2818 80.228 72.9975C80.228 74.5351 78.85 75.9271 77.2938 75.9271Z" fill="#FFDC64"/>
<path d="M31.3033 53.2998H51.7129C52.9287 53.2998 53.7879 52.2639 53.7879 51.228C53.7879 50.0141 52.7504 49.1562 51.7129 49.1562H31.3033C30.0875 49.1562 29.2283 50.1921 29.2283 51.228C29.2283 52.2639 30.0875 53.2998 31.3033 53.2998Z" fill="#FFDC64"/>
<path d="M31.3033 60.0332H51.7129C52.9287 60.0332 53.7879 58.9973 53.7879 57.9614C53.7879 56.7475 52.7504 55.8896 51.7129 55.8896H31.3033C30.0875 55.8896 29.2283 56.9255 29.2283 57.9614C29.2283 58.9973 30.0875 60.0332 31.3033 60.0332Z" fill="#FFDC64"/>
<path d="M9.67793 36.9032H5.70625C3.97168 36.9032 2.59375 35.5274 2.59375 33.7956V31.9019H5.1875V33.7956C5.1875 33.9736 5.36582 34.3135 5.70625 34.3135H9.67793V36.9032Z" fill="#ACB3BA"/>
<path d="M73.3221 36.9032H77.2938C79.0283 36.9032 80.4063 35.5274 80.4063 33.7956V31.9019H77.8125V33.7956C77.8125 33.9736 77.6342 34.3135 77.2938 34.3135H73.3221V36.9032Z" fill="#ACB3BA"/>
<path d="M80.4062 31.9019V33.7956C80.4062 33.9736 80.4062 33.9736 80.4062 34.1355C80.2279 35.6893 79.0283 36.9032 77.472 36.9032H73.5004V34.3135H77.472C77.6504 34.3135 77.6504 34.3135 77.8125 34.1355C77.8125 33.9574 77.9908 33.9574 77.9908 33.7956V31.9019H80.4062Z" fill="#ACB3BA"/>
<path d="M67.4375 14.4541H15.5625V40.691H67.4375V14.4541Z" fill="#54C0EB"/>
<path d="M26.6346 14.4541L15.5625 27.4026V23.6152L23.3438 14.4541H26.6346Z" fill="#84DBFF"/>
<path d="M33.8971 14.4541L15.5625 36.3857V29.9923L28.8717 14.4541H33.8971Z" fill="#84DBFF"/>
<path d="M53.95 10.1486H29.05C27.4937 10.1486 26.4562 8.93472 26.4562 7.55894C26.4562 6.00512 27.6721 4.96924 29.05 4.96924H53.7717C55.3279 4.96924 56.3654 6.18316 56.3654 7.55894C56.5438 8.93472 55.3279 10.1486 53.95 10.1486Z" fill="#FFDC64"/>
<path d="M21.9496 75.9268H9.15918V78.5165H21.9496V75.9268Z" fill="#334A5E"/>
<path d="M73.8246 75.9268H61.0342V78.5165H73.8246V75.9268Z" fill="#334A5E"/>
<path d="M80.4062 31.9019H77.8125V33.7956H80.4062V31.9019Z" fill="#9EAAB5"/>
<path d="M5.1875 31.9019H2.59375V33.7956H5.1875V31.9019Z" fill="#9EAAB5"/>
<path d="M76.775 32.4198H81.2654C82.3029 32.4198 83 31.7239 83 30.688V20.8471C83 19.8112 82.3029 19.1152 81.2654 19.1152H76.775C75.7375 19.1152 75.0404 19.8112 75.0404 20.8471V30.688C75.0404 31.7239 75.9158 32.4198 76.775 32.4198Z" fill="#40596B"/>
<path d="M6.225 32.4198H1.73457C0.69707 32.4198 0 31.7239 0 30.688V20.8471C0 19.8112 0.69707 19.1152 1.73457 19.1152H6.225C7.2625 19.1152 7.95957 19.8112 7.95957 20.8471V30.688C7.95957 31.7239 7.08418 32.4198 6.225 32.4198Z" fill="#40596B"/>
<path d="M18.675 61.2467C22.3995 61.2467 25.4188 58.2322 25.4188 54.5135C25.4188 50.7948 22.3995 47.7803 18.675 47.7803C14.9506 47.7803 11.9313 50.7948 11.9313 54.5135C11.9313 58.2322 14.9506 61.2467 18.675 61.2467Z" fill="white"/>
<path d="M64.325 61.2467C68.0495 61.2467 71.0688 58.2322 71.0688 54.5135C71.0688 50.7948 68.0495 47.7803 64.325 47.7803C60.6006 47.7803 57.5813 50.7948 57.5813 54.5135C57.5813 58.2322 60.6006 61.2467 64.325 61.2467Z" fill="white"/>
<path d="M7.92716 30.494C7.92716 31.5299 7.13282 32.3878 6.16017 32.3878H2.75587C1.79943 32.3878 1.0213 31.708 1.0213 30.8501C1.0213 30.0085 1.79943 29.3125 2.75587 29.3125H7.94337V30.494H7.92716Z" fill="#334A5E"/>
<path d="M75.0566 29.3125H80.2441C81.2006 29.3125 81.9787 29.9923 81.9787 30.8501C81.9787 31.6918 81.2006 32.3878 80.2441 32.3878H76.8398C75.8672 32.3878 75.0729 31.5461 75.0729 30.494V29.3125H75.0566Z" fill="#334A5E"/>
<path d="M18.7398 48.7838C22.2414 48.7838 25.0783 51.4544 25.4187 54.9505C25.4187 54.7887 25.4187 54.6106 25.4187 54.4488C25.4187 50.7908 22.4197 47.7803 18.7398 47.7803C15.0599 47.7803 12.0609 50.7746 12.0609 54.4488C12.0609 54.6106 12.0609 54.7887 12.0609 54.9505C12.4013 51.4544 15.2383 48.7838 18.7398 48.7838Z" fill="#F2F2F2"/>
<path d="M64.325 48.6544C67.8266 48.6544 70.6635 51.325 71.0039 54.8211C71.0039 54.6593 71.0039 54.4812 71.0039 54.3194C71.0039 50.6614 68.0049 47.6509 64.325 47.6509C60.6451 47.6509 57.6461 50.6452 57.6461 54.3194C57.6461 54.4812 57.6461 54.6593 57.6461 54.8211C57.9865 51.3088 60.8235 48.6544 64.325 48.6544Z" fill="#F2F2F2"/>
</g>
<defs>
<clipPath id="clip0">
<rect width="83" height="83" fill="white"/>
</clipPath>
</defs>
</svg>
