<svg width="81" height="68" viewBox="0 0 81 68" fill="none" xmlns="http://www.w3.org/2000/svg">
<g clip-path="url(#clip0)">
<path d="M6.47175 22.8208H4.29403C2.28865 22.8208 0.784607 24.3229 0.784607 26.3257C0.784607 28.3285 2.28865 29.8305 4.29403 29.8305H9.98118V26.3257C9.80884 24.3229 8.3048 22.8208 6.47175 22.8208Z" fill="#40596B"/>
<path d="M75.3128 22.8208H77.4906C79.4959 22.8208 81 24.3229 81 26.3257C81 28.3285 79.4959 29.8305 77.4906 29.8305H71.8034V26.3257C71.9757 24.3229 73.4798 22.8208 75.3128 22.8208Z" fill="#40596B"/>
<path d="M17.5014 67.2105H8.9785C7.14546 67.2105 5.64142 65.7084 5.64142 63.8777V51.0317H20.8385V63.8777C20.8385 65.7084 19.3344 67.2105 17.5014 67.2105Z" fill="#40596B"/>
<path d="M72.9784 67.2105H64.4556C62.6225 67.2105 61.1185 65.7084 61.1185 63.8777V51.0317H76.3312V63.8777C76.3155 65.7084 74.8115 67.2105 72.9784 67.2105Z" fill="#40596B"/>
<path d="M69.9704 60.8737H11.9865C8.47711 60.8737 5.46903 58.3702 4.96769 54.8653L2.28862 38.0138C1.61493 33.6797 4.96769 29.8306 9.30746 29.8306H72.6494C76.9892 29.8306 80.3419 33.664 79.6683 38.0138L76.9892 54.8653C76.4878 58.3702 73.4798 60.8737 69.9704 60.8737Z" fill="#FFD15C"/>
<path d="M72.9784 29.8304H8.97845L15.9973 11.8054C17.6737 7.62772 21.5121 4.96777 26.0242 4.96777H56.105C60.4448 4.96777 64.4555 7.64337 66.1319 11.8054L72.9784 29.8304Z" fill="#FFD15C"/>
<path d="M12.817 29.8304L19.0054 13.9803C20.0081 10.6476 23.0162 8.47266 25.852 8.47266H55.9327C58.7685 8.47266 61.7765 10.6476 62.9516 13.9803L69.1401 29.8304H12.817Z" fill="#54C0EB"/>
<path d="M64.2832 52.0332C67.9779 52.0332 70.9731 49.0419 70.9731 45.352C70.9731 41.6621 67.9779 38.6709 64.2832 38.6709C60.5885 38.6709 57.5934 41.6621 57.5934 45.352C57.5934 49.0419 60.5885 52.0332 64.2832 52.0332Z" fill="white"/>
<path d="M17.658 52.0332C21.3527 52.0332 24.3479 49.0419 24.3479 45.352C24.3479 41.6621 21.3527 38.6709 17.658 38.6709C13.9633 38.6709 10.9682 41.6621 10.9682 45.352C10.9682 49.0419 13.9633 52.0332 17.658 52.0332Z" fill="white"/>
<path d="M64.2832 52.0332C67.9779 52.0332 70.9731 49.0419 70.9731 45.352C70.9731 41.6621 67.9779 38.6709 64.2832 38.6709C60.5885 38.6709 57.5934 41.6621 57.5934 45.352C57.5934 49.0419 60.5885 52.0332 64.2832 52.0332Z" fill="white"/>
<path d="M64.2833 49.1854C66.4032 49.1854 68.1217 47.4692 68.1217 45.352C68.1217 43.2348 66.4032 41.5186 64.2833 41.5186C62.1633 41.5186 60.4448 43.2348 60.4448 45.352C60.4448 47.4692 62.1633 49.1854 64.2833 49.1854Z" fill="white"/>
<path d="M17.658 52.0332C21.3527 52.0332 24.3479 49.0419 24.3479 45.352C24.3479 41.6621 21.3527 38.6709 17.658 38.6709C13.9633 38.6709 10.9682 41.6621 10.9682 45.352C10.9682 49.0419 13.9633 52.0332 17.658 52.0332Z" fill="white"/>
<path d="M64.2832 39.6723C67.7926 39.6723 70.6284 42.3479 70.9731 45.8527C70.9731 45.6806 70.9731 45.5242 70.9731 45.352C70.9731 41.6751 67.965 38.6709 64.2832 38.6709C60.6015 38.6709 57.5934 41.6751 57.5934 45.352C57.5934 45.5242 57.5934 45.6806 57.5934 45.8527C57.9381 42.3479 60.7738 39.6723 64.2832 39.6723Z" fill="#F2F2F2"/>
<path d="M17.658 39.6723C21.1675 39.6723 24.0032 42.3479 24.3479 45.8527C24.3479 45.6806 24.3479 45.5242 24.3479 45.352C24.3479 41.6751 21.3398 38.6709 17.658 38.6709C13.9763 38.6709 10.9682 41.6751 10.9682 45.352C10.9682 45.5242 10.9682 45.6806 10.9682 45.8527C11.3129 42.3479 14.1486 39.6723 17.658 39.6723Z" fill="#F2F2F2"/>
<path d="M76.4879 60.8733H5.62571C4.29401 60.8733 3.29132 59.8719 3.29132 58.5419V57.0399C3.29132 55.7099 4.29401 54.7085 5.62571 54.7085H76.4879C77.8196 54.7085 78.8223 55.7099 78.8223 57.0399V58.5419C78.8223 59.8719 77.8196 60.8733 76.4879 60.8733Z" fill="#FF7058"/>
<path d="M46.7361 4.96772H35.2051L37.2105 0.790039H44.9031L46.7361 4.96772Z" fill="#FF7058"/>
<path d="M47.4098 8.47266L30.5364 29.6583H27.356L44.2294 8.47266H47.4098Z" fill="#84DBFF"/>
<path d="M54.601 8.47266L37.7119 29.6583H32.6984L49.5875 8.47266H54.601Z" fill="#84DBFF"/>
<path d="M53.0969 52.0328H28.86C28.86 52.0328 27.0269 43.6931 28.86 41.8468C33.1998 37.5127 48.7415 37.5127 53.0969 41.8468C54.93 43.6775 53.0969 52.0328 53.0969 52.0328Z" fill="#F8B64C"/>
<path d="M20.8385 60.8735H5.62573V63.377H20.8385V60.8735Z" fill="#334A5E"/>
<path d="M76.3312 60.8735H61.1185V63.377H76.3312V60.8735Z" fill="#334A5E"/>
</g>
<defs>
<clipPath id="clip0">
<rect x="0.784607" y="0.790039" width="80.2154" height="66.4204" fill="white"/>
</clipPath>
</defs>
</svg>
